<svg xmlns="http://www.w3.org/2000/svg" viewBox="0 0 512 512">
  <circle cx="256" cy="256" r="248.5" fill="#d7dbdd"/>
  <path d="M400.4 458.3A248.5 248.5 0 11187.6 17a248.5 248.5 0 00212.8 441.3z" fill="#bdc4c6"/>
  <circle cx="256" cy="297.4" r="124.3" fill="#f95428"/>
  <path d="M341.8 387.3A124.3 124.3 0 11216 179.8a124.3 124.3 0 00125.9 207.5z" fill="#e54728"/>
  <circle cx="254.3" cy="308.3" r="47.5"/>
  <path d="M423.5 62.4a7.5 7.5 0 00-9.8 11.2A241 241 0 01478.9 348l-29.5-16a7.5 7.5 0 00-7 0l-22.9 11.7v-7c0-3.5-2.3-6.5-5.7-7.3l-28.4-7.1a131.9 131.9 0 00-104-154l10.5-17.8 20.2-4 31.9 11.3a7.4 7.4 0 009.5-4.6 7.5 7.5 0 00-4.6-9.5l-33.8-12a7.4 7.4 0 00-3.9-.2l-9.2 1.8 6.2-10.6.8-1.6 10.8-36.8a7.5 7.5 0 00-14.3-4.2l-10.6 35.9-29.5 50.1a131.9 131.9 0 00-129 76l-64-11.2c-2-.4-4 .1-5.7 1.3l-23.9 18a7.5 7.5 0 009 11.9L73 246l57.9 10.2a131.2 131.2 0 005 95.3 7.5 7.5 0 0013.6-6.1A117 117 0 01256 180.6c64.4 0 116.8 52.4 116.8 116.8a117 117 0 01-194.7 87 7.5 7.5 0 00-10 11.2 132 132 0 00213.6-59l22.9 5.7v14.5l5 33.5a7.5 7.5 0 1014.8-2.2l-4.2-28.2 25.5-13 27 14.7a241.4 241.4 0 01-291.6 123.6l13.6-6.9c2.1-1 3.6-3 4-5.2l5-25.9a7.5 7.5 0 00-14.7-2.8l-4.2 22.3-22.6 11.2-.2.1A241.5 241.5 0 0115 256 241.4 241.4 0 01370.5 43.9a7.5 7.5 0 107.1-13.2A256.4 256.4 0 0075 75C26.6 123.3 0 187.6 0 256s26.6 132.7 75 181c48.3 48.4 112.6 75 181 75s132.7-26.6 181-75a256 256 0 00-13.6-374.7z"/>
</svg>
