<svg xmlns="http://www.w3.org/2000/svg" viewBox="-44 0 511 512">
  <path d="M78 40l-24 85c-21 40-28 111-18 166 4 24 13 47 25 67 7-15 26 62 43 47h217c16 15 36-62 43-47 12-20 21-43 25-67 10-55 3-126-19-166l-48-83zm0 0" fill="#802d40"/>
  <path d="M212 309l65 161-65 12c-52 0-109-70-142-124 8-19 19-36 34-50 9-7 18-13 29-17 51-17 78 16 79 18zm0 0" fill="#fb7b76"/>
  <path d="M355 358c-30 50-84 82-143 83V309c2-2 29-35 80-18 10 4 20 10 29 17 14 14 26 31 34 50zm0 0" fill="#ff5364"/>
  <path d="M321 308c-9-7-19-13-29-17-51-17-78 16-80 18-1-2-28-35-79-18-11 4-20 10-29 17-5-32 6-65 29-87 44-44 79-9 62 9-18 17-9 44 17 44 27 0 36-27 18-44s18-53 62-9c23 22 34 55 29 87zm0 0" fill="#2c2f38"/>
  <path d="M323 98c-3 3-5 7-5 11v4c-1-6-8-14-23-14-7 0-15 2-21 6-5 4-8 9-9 15v-4c0-8-6-19-23-19-8 0-15 2-21 7-5 4-8 10-9 17 0-7-3-13-8-17-6-5-14-7-21-7-18 0-24 11-24 19v4c0-6-3-11-8-15-6-4-14-6-21-6-16 0-22 8-24 14v-8c0-3-1-6-3-8l1-1h1a189 189 0 01190-15c9 4 17 9 25 15l3 2zm0 0" fill="#fb7b76"/>
  <g fill="#fac176">
    <path d="M212 112v29c0 5-6 10-11 9h-30c-6 1-11-4-12-9v-34c0-8 6-19 24-19 7 0 15 3 21 7 5 4 8 10 8 17zm0 0M159 111v25c0 5-6 9-13 9h-27c-7 0-13-4-13-9v-9-23c2-6 8-14 24-14 7 0 15 2 21 7 5 3 8 8 8 14zm0 0M265 107v34c0 5-6 10-11 9h-30c-6 1-11-4-12-9v-29c1-7 4-13 9-17 6-4 13-7 21-7 17 0 23 11 23 19zm0 0M319 127v9c0 5-6 9-14 9h-26c-8 0-14-4-14-9v-25c1-6 4-11 9-14 6-5 14-7 21-7 15 0 22 8 23 14v21l1 2zm0 0"/>
  </g>
  <path d="M351 34c-65-64-139-18-139-18S139-30 74 34c-83 83-92 239-46 359 46 119 184 119 184 119s139 0 185-119c46-120 37-276-46-359zm29 257c-4 24-13 47-25 67-30 50-84 82-143 83-58-1-112-33-142-83a230 230 0 01-7-215c7-12 15-24 25-34l15-12 1-1h1a189 189 0 01190-15c9 4 17 9 25 15l3 2 14 11c10 10 18 22 25 34 21 40 28 93 18 148zm0 0" fill="#df4d60"/>
  <path d="M212 121v28c0 6-6 10-11 10h-30c-6 0-11-4-12-10v-33c0-8 6-19 24-19 7 0 15 2 21 7 5 4 8 10 8 17zm0 0M159 120v25c0 5-6 9-13 9h-27c-7 0-13-4-13-9v-9-23c2-6 8-14 24-14 7 0 15 2 21 6 5 4 8 9 8 15zm0 0M265 116v33c0 6-6 10-11 10h-30c-6 0-11-4-12-10v-28c1-7 4-13 9-17 6-5 13-7 21-7 17 0 23 11 23 19zm0 0M319 136v9c0 5-6 9-14 9h-26c-8 0-14-4-14-9v-25c1-6 4-11 9-15 6-4 14-6 21-6 15 0 22 8 23 14v21l1 2zm0 0" fill="#f5efca"/>
  <path d="M362 143h-30c-6 1-11-2-13-7v-20l-1-3v-4c0-4 2-8 5-11l14 11c10 10 18 22 25 34zm0 0M106 105v31c-2 5-7 8-13 7H63c7-12 15-24 25-34l15-12c2 2 3 5 3 8zm0 0" fill="#f9eab0"/>
  <path d="M221 415c-5 0-9-4-9-9 0-8-17-9-17-9a9 9 0 110-17c12 0 35 5 35 26 0 5-4 9-9 9zm0 0" fill="#ff5364"/>
  <path d="M204 371c-5 0-9-4-9-9 0-21 23-27 35-27a9 9 0 010 18s-18 1-18 9c0 5-4 9-8 9zm0 0" fill="#fb7b76"/>
</svg>
