<svg xmlns="http://www.w3.org/2000/svg" viewBox="0 0 512 512">
  <path d="M335 411a8 8 0 00-10 0c-6 5-35 29-35 61 0 22 18 40 40 40s40-18 40-40c0-33-31-58-35-61z" fill="#00c1ec"/>
  <path d="M335 411a8 8 0 00-10 0c-3 2-8 6-14 13 10 10 22 28 22 48 0 15-9 29-22 35 6 3 12 5 19 5 22 0 40-18 40-40 0-33-31-58-35-61z" fill="#00aade"/>
  <path d="M199 384a8 8 0 00-10 0c-5 4-31 26-31 55 0 20 16 36 36 36 21 0 37-16 37-36 0-30-28-52-32-55z" fill="#00c1ec"/>
  <path d="M199 384a8 8 0 00-10 0l-13 13c9 9 18 24 18 42 0 13-7 25-18 31 5 4 12 5 18 5 21 0 37-16 37-36 0-30-28-52-32-55z" fill="#00aade"/>
  <path d="M411 327c-5-15-16-39-42-61-14-13-22-59-29-103C328 87 314 0 256 0s-72 87-84 163c-7 44-15 90-29 103-44 38-55 88-43 115 5 13 17 26 45 26l15-1c14-2 27-6 34-9 18 25 39 39 62 39s44-14 62-39a171 171 0 0049 10c28 0 40-13 45-26 6-14 6-33-1-54z" fill="#ffc89f"/>
  <path d="M411 327c-5-15-16-39-42-61-14-13-22-59-29-103C328 87 314 0 256 0s-72 87-84 163c-7 44-15 90-29 103-44 38-55 88-43 115 5 13 17 26 45 26l15-1c14-2 27-6 34-9 18 25 39 39 62 39s44-14 62-39a171 171 0 0049 10c28 0 40-13 45-26 6-14 6-33-1-54z" fill="#ffc89f"/>
  <g fill="#f7b081">
    <path d="M411 327c-5-15-16-39-42-61-14-13-22-59-29-103C328 87 314 0 256 0c-7 0-14 1-19 4 42 17 54 92 65 159 7 44 14 90 28 103 26 22 37 46 43 61 6 21 6 40 0 54-4 10-12 19-28 24a136 136 0 0022 2c28 0 40-13 45-26 6-14 6-33-1-54z"/>
    <path d="M412 381l2-6c-26-13-63-19-95 22a169 169 0 0048 10c28 0 40-13 45-26zM98 375l2 6c5 13 17 26 45 26l15-1c13-2 25-6 33-9-32-41-69-35-95-22z"/>
  </g>
  <g fill="#f49864">
    <path d="M194 397c-5-14-15-31-34-37a8 8 0 10-5 15c13 4 21 15 25 27l14-5zM352 360c-19 6-29 23-34 37l14 5c4-12 12-23 25-27a8 8 0 10-5-15z"/>
  </g>
</svg>
